<svg width="56" height="56" viewBox="0 0 56 56" fill="none" xmlns="http://www.w3.org/2000/svg">
<g clip-path="url(#clip0_70_184)">
<g clip-path="url(#clip1_70_184)">
<g clip-path="url(#clip2_70_184)">
<path d="M30.4651 2.76528C40.1082 -2.77374 52.1373 4.17123 52.1619 15.2919L52.2017 33.4306C52.2264 44.5937 40.1446 51.5856 30.4777 46.0044L14.7094 36.9005C5.04253 31.3193 5.05762 17.3608 14.7366 11.8001L30.4651 2.76528Z" fill="#00A0E9"/>
<path d="M1.93164 33.3392V32.5282C1.93164 31.7461 2.33716 31.3406 3.11923 31.3406H6.39233V19.9282L6.4213 18.5378H6.36337C6.18957 18.9144 5.92888 19.262 5.5813 19.5806L4.68336 20.4495C4.07509 20.9999 3.52474 20.9709 3.00336 20.3916L2.45302 19.8123C1.90268 19.262 1.90268 18.6826 2.48199 18.1033L6.13164 14.5985C6.59509 14.193 7.0875 13.9902 7.63785 13.9902H8.8544C9.63647 13.9902 10.042 14.3958 10.042 15.2068V31.3406H13.2861C14.0972 31.3406 14.5027 31.7461 14.5027 32.5282V33.3392C14.5027 34.1502 14.0972 34.5558 13.2861 34.5558H3.11923C2.33716 34.5558 1.93164 34.1502 1.93164 33.3392Z" fill="#F2F9FE"/>
<path d="M16.1543 28.7336C16.1543 28.0095 16.2702 27.3433 16.5308 26.6771C16.7915 26.0398 17.1102 25.4895 17.5157 25.026C17.9212 24.5915 18.2688 24.244 18.5295 23.9833C18.7902 23.7515 19.0508 23.5488 19.3115 23.346C17.7474 22.2453 16.9653 20.884 16.9653 19.2329C16.9653 17.6978 17.5446 16.3943 18.6743 15.2936C19.804 14.1929 21.426 13.6426 23.5405 13.6426C25.5102 13.6426 27.1322 14.135 28.3777 15.1488C29.6522 16.1915 30.2895 17.524 30.2895 19.204C30.2895 19.986 30.1157 20.7971 29.7681 21.6081C29.4205 22.4191 29.1019 22.9984 28.8122 23.375C28.5226 23.7515 28.2329 24.0991 27.9722 24.3598C29.855 25.4895 30.8108 26.9667 30.8108 28.8205C30.8108 30.4715 30.1446 31.8909 28.8122 33.0784C27.4798 34.295 25.7129 34.9033 23.5115 34.9033C21.3391 34.9033 19.5722 34.295 18.1819 33.1074C16.8205 31.9198 16.1543 30.4426 16.1543 28.7336ZM25.3074 23.0564L25.4812 22.8246L25.9736 22.0426C26.0895 21.8688 26.1764 21.695 26.2633 21.5212C26.3212 21.3764 26.3791 21.1736 26.466 20.9709C26.524 20.7681 26.5819 20.5364 26.6108 20.3046C26.6398 20.1019 26.6688 19.8702 26.6688 19.6384C26.6688 18.7695 26.3791 18.1033 25.8288 17.6109C25.2784 17.1184 24.5253 16.8867 23.5695 16.8867C22.6136 16.8867 21.8895 17.1184 21.3971 17.5529C20.8757 18.0164 20.615 18.5957 20.615 19.2909C20.615 19.4936 20.644 19.6964 20.6729 19.8991C20.7308 20.1019 20.8177 20.2757 20.9626 20.4495C21.0784 20.6233 21.1943 20.7681 21.2812 20.9129C21.3681 21.0578 21.5419 21.2026 21.7736 21.3474C22.0053 21.4922 22.1791 21.6081 22.324 21.695C22.4688 21.7819 22.7005 21.9267 23.0191 22.0715C23.3377 22.2164 23.5695 22.3322 23.7143 22.3902L25.3074 23.0564ZM19.8908 28.3281C19.8908 29.3129 20.2384 30.124 20.9626 30.7322C21.6577 31.3405 22.5267 31.6591 23.5405 31.6591C24.4964 31.6591 25.3074 31.3695 25.9736 30.8191C26.6398 30.2688 26.9874 29.6026 26.9874 28.7626C26.9874 28.5019 26.9584 28.2412 26.8715 28.0095C26.7846 27.7778 26.6688 27.546 26.466 27.3433C26.2633 27.1405 26.0895 26.9667 25.9157 26.8219C25.7419 26.6771 25.4812 26.5322 25.1046 26.3295C24.7281 26.1267 24.4095 25.9819 24.1777 25.866C23.946 25.7791 23.5695 25.6053 23.0481 25.3736C22.5267 25.1419 22.1212 24.9681 21.8315 24.8522C21.484 25.1709 21.2233 25.4026 21.0495 25.5764C20.8467 25.7791 20.615 26.1267 20.3253 26.6771C20.0357 27.2274 19.8908 27.7777 19.8908 28.3281Z" fill="#F2F9FE"/>
<path d="M34.5466 27.7207C33.7356 27.7207 33.3301 27.3152 33.3301 26.5041V26.0697C33.3301 25.2586 33.7356 24.8531 34.5466 24.8531H39.5866V19.2048C39.5866 18.3938 39.9921 17.9883 40.8032 17.9883H41.3825C42.1646 17.9883 42.5701 18.3938 42.5701 19.2048V24.8531H47.639C48.4211 24.8531 48.8266 25.2586 48.8266 26.0697V26.5041C48.8266 27.3152 48.4211 27.7207 47.639 27.7207H42.5701V33.34C42.5701 34.151 42.1646 34.5566 41.3825 34.5566H40.8032C39.9921 34.5566 39.5866 34.151 39.5866 33.34V27.7207H34.5466Z" fill="#F2F9FE"/>
</g>
</g>
</g>
<defs>
<clipPath id="clip0_70_184">
<rect width="56" height="56" fill="white"/>
</clipPath>
<clipPath id="clip1_70_184">
<rect width="56" height="56" fill="white"/>
</clipPath>
<clipPath id="clip2_70_184">
<rect width="56" height="50.2069" fill="white"/>
</clipPath>
</defs>
</svg>
