<svg width="51" height="41" viewBox="0 0 51 41" fill="none" xmlns="http://www.w3.org/2000/svg">
  <path d="M30.1128 2.02783C34.3333 -0.408169 39.5488 -0.407487 43.7693 2.02851C47.9891 4.4652 50.5972 8.98207 50.5979 13.8554L50.5999 26.5907C50.5999 28.9884 49.9689 31.3438 48.7697 33.4199C45.0238 39.9084 36.602 42.1655 30.1135 38.4196L19.0808 32.05C12.593 28.3028 10.3366 19.8809 14.0831 13.3924C15.2817 11.3163 17.0061 9.59193 19.0822 8.39339L30.1128 2.02783Z" fill="url(#paint0_radial_906_5369)"/>
  <path d="M9.26134 29.6951C7.71701 29.6951 6.17269 29.4055 4.62836 28.8264C3.10817 28.2473 1.74482 27.4027 0.538314 26.2927L3.5787 22.637C4.42326 23.3609 5.36433 23.9521 6.40192 24.4106C7.43952 24.8691 8.44092 25.0983 9.40612 25.0983C10.5161 25.0983 11.3365 24.8932 11.8674 24.483C12.4224 24.0728 12.6999 23.5178 12.6999 22.818C12.6999 22.07 12.3862 21.5271 11.7588 21.1892C11.1556 20.8273 10.3351 20.4291 9.29753 19.9948L6.22095 18.6918C5.42466 18.3539 4.66456 17.9075 3.94066 17.3525C3.21675 16.7734 2.62557 16.0616 2.16709 15.217C1.70862 14.3725 1.47939 13.3831 1.47939 12.249C1.47939 10.946 1.82927 9.76364 2.52905 8.70191C3.25295 7.64019 4.24228 6.79564 5.49705 6.16825C6.77594 5.54087 8.23581 5.22718 9.87666 5.22718C11.2279 5.22718 12.5792 5.49261 13.9305 6.02347C15.2818 6.55434 16.4642 7.3265 17.4776 8.33996L14.763 11.7061C13.9908 11.1029 13.2187 10.6444 12.4465 10.3307C11.6743 9.99287 10.8177 9.82396 9.87666 9.82396C8.95971 9.82396 8.22375 10.017 7.66875 10.4031C7.13789 10.765 6.87246 11.2838 6.87246 11.9595C6.87246 12.6834 7.21028 13.2263 7.88592 13.5883C8.5857 13.9502 9.44231 14.3363 10.4558 14.7465L13.4962 15.9771C14.9198 16.5563 16.054 17.3525 16.8985 18.366C17.7431 19.3795 18.1653 20.7187 18.1653 22.3837C18.1653 23.6867 17.8155 24.8932 17.1157 26.0032C16.4159 27.1132 15.4024 28.006 14.0753 28.6816C12.7481 29.3573 11.1435 29.6951 9.26134 29.6951ZM31.7625 29.6951C29.6391 29.6951 27.769 29.2004 26.1523 28.2111C24.5597 27.2218 23.305 25.8101 22.388 23.9763C21.4952 22.1182 21.0488 19.9103 21.0488 17.3525C21.0488 14.7706 21.4952 12.5869 22.388 10.8012C23.305 8.99147 24.5597 7.61606 26.1523 6.67499C27.769 5.70978 29.6391 5.22718 31.7625 5.22718C33.886 5.22718 35.744 5.70978 37.3366 6.67499C38.9533 7.61606 40.2081 8.99147 41.1009 10.8012C42.0178 12.611 42.4763 14.7948 42.4763 17.3525C42.4763 19.9103 42.0178 22.1182 41.1009 23.9763C40.2081 25.8101 38.9533 27.2218 37.3366 28.2111C35.744 29.2004 33.886 29.6951 31.7625 29.6951ZM31.7625 25.0983C33.3793 25.0983 34.6582 24.3985 35.5992 22.999C36.5403 21.5994 37.0108 19.7173 37.0108 17.3525C37.0108 14.9878 36.5403 13.1418 35.5992 11.8147C34.6582 10.4875 33.3793 9.82396 31.7625 9.82396C30.1458 9.82396 28.8669 10.4875 27.9259 11.8147C26.9848 13.1418 26.5143 14.9878 26.5143 17.3525C26.5143 19.7173 26.9848 21.5994 27.9259 22.999C28.8669 24.3985 30.1458 25.0983 31.7625 25.0983Z" fill="#003046"/>

  <defs>
    <radialGradient id="paint0_radial_906_5369" cx="0" cy="0" r="1" gradientUnits="userSpaceOnUse" gradientTransform="translate(34.1831 18.6317) rotate(30.0006) scale(20.0267)">
      <stop stop-color="#FFCE04"/>
      <stop offset="1" stop-color="#FDB224"/>
    </radialGradient>
  </defs>
</svg>
