<svg width="24" height="24" viewBox="0 0 24 24" fill="none" xmlns="http://www.w3.org/2000/svg">
<path d="M12.0001 0C9.89114 0 7.81612 0.556031 5.99934 1.60809C5.66358 1.80248 5.54878 2.23214 5.74275 2.56809L7.62558 5.82923C7.81992 6.16584 8.25075 6.28073 8.58684 6.08616C9.61978 5.48803 10.8 5.17186 12.0001 5.17186C12.3885 5.17186 12.7033 4.85705 12.7033 4.46873V0.703125C12.7033 0.314812 12.3885 0 12.0001 0Z" fill="url(#paint0_linear_70_770)"/>
<path d="M1.60599 6.00185C2.66021 4.17527 4.17905 2.65601 5.99841 1.6084L8.58342 6.08791C7.54903 6.68351 6.68522 7.54774 6.08536 8.58715C5.89125 8.92348 5.46122 9.03874 5.12489 8.84463L1.86352 6.96232C1.52714 6.76821 1.41188 6.33818 1.60599 6.00185Z" fill="#003046"/>
<path d="M12 0V5.17186C13.2001 5.17186 14.3804 5.48803 15.4133 6.08616C15.7497 6.28092 16.1804 6.16556 16.3746 5.82923L18.2573 2.56809C18.4514 2.23209 18.3365 1.80248 18.0007 1.60809C16.184 0.556031 14.109 0 12 0Z" fill="#003046"/>
<path d="M17.9994 1.60645C19.8259 2.66066 21.3452 4.17951 22.3928 5.99887C22.5864 6.3351 22.4711 6.76457 22.1351 6.95859L18.8743 8.84188C18.5377 9.03627 18.1071 8.92044 17.9133 8.58388C17.3177 7.54949 16.4535 6.68568 15.4141 6.08582L17.9994 1.60645Z" fill="url(#paint1_linear_70_770)"/>
<path d="M24.0002 11.9998C24.0002 9.89082 23.4442 7.8158 22.3921 5.99902L17.9141 8.58652C18.5122 9.61946 18.8284 10.7997 18.8284 11.9998C18.8284 12.3881 19.1432 12.7029 19.5315 12.7029H23.2971C23.6854 12.7029 24.0002 12.3882 24.0002 11.9998Z" fill="#003046"/>
<path d="M23.9992 12H18.8274C18.8274 13.2001 18.5112 14.3804 17.9131 15.4133C17.7183 15.7497 17.8337 16.1804 18.17 16.3746L21.4311 18.2573C21.7671 18.4514 22.1967 18.3365 22.3911 18.0007C23.4432 16.184 23.9992 14.109 23.9992 12Z" fill="url(#paint2_linear_70_770)"/>
<path d="M22.3941 17.9984L17.9148 15.4131C17.3149 16.4524 16.4511 17.3167 15.4167 17.9123C15.0799 18.1063 14.9645 18.537 15.1587 18.8733L17.042 22.1341C17.2361 22.4701 17.6656 22.5854 18.0018 22.3918C19.8211 21.3442 21.3399 19.825 22.3941 17.9984Z" fill="#003046"/>
<path d="M12 24.0002C11.6117 24.0002 11.2969 23.6854 11.2969 23.2971V19.5315C11.2969 19.1432 11.6117 18.8284 12 18.8284C13.2001 18.8284 14.3804 18.5122 15.4133 17.9141L18.0007 22.3921C16.184 23.4442 14.109 24.0002 12 24.0002Z" fill="url(#paint3_linear_70_770)"/>
<path d="M0 11.9998C0 9.89082 0.556031 7.8158 1.60809 5.99902L6.08616 8.58652C5.48803 9.61946 5.17186 10.7997 5.17186 11.9998C5.17186 12.3881 4.85705 12.7029 4.46873 12.7029H0.703125C0.314812 12.7029 0 12.3882 0 11.9998Z" fill="url(#paint4_linear_70_770)"/>
<path d="M0 12H5.17186C5.17186 13.2001 5.48803 14.3804 6.08616 15.4133C6.28092 15.7497 6.16556 16.1804 5.82923 16.3746L2.56809 18.2573C2.23209 18.4514 1.80248 18.3365 1.60809 18.0007C0.556031 16.184 0 14.109 0 12Z" fill="#003046"/>
<path d="M6.00083 22.3934C6.33716 22.5875 6.76719 22.4722 6.9613 22.1359L8.84361 18.8745C9.03772 18.5382 8.92245 18.1082 8.58612 17.9141C7.54677 17.3142 6.68253 16.4504 6.08689 15.416L1.60742 18.0011C2.65508 19.8203 4.1743 21.3392 6.00083 22.3934Z" fill="url(#paint5_linear_70_770)"/>
<path d="M12.0008 24.0002C9.8918 24.0002 7.81678 23.4442 6 22.3921L8.5875 17.9141C9.62044 18.5122 10.8007 18.8284 12.0008 18.8284V24.0002Z" fill="#003046"/>
<path d="M13.507 11.2971H12.7039V9.6908H14.2601C14.6484 9.6908 14.9633 9.37599 14.9633 8.98768C14.9633 8.59937 14.6484 8.28455 14.2601 8.28455H12.7039V7.48145C12.7039 7.09313 12.3891 6.77832 12.0008 6.77832C11.6124 6.77832 11.2976 7.09313 11.2976 7.48145V8.28455H10.4945C9.27628 8.28455 8.28516 9.27568 8.28516 10.4939C8.28516 11.7121 9.27623 12.7033 10.4945 12.7033H11.2976V14.3096H9.74138C9.35306 14.3096 9.03825 14.6244 9.03825 15.0127C9.03825 15.401 9.35306 15.7158 9.74138 15.7158H11.2976V16.5189C11.2976 16.9073 11.6124 17.2221 12.0008 17.2221C12.3891 17.2221 12.7039 16.9073 12.7039 16.5189V15.7158H13.507C14.7253 15.7158 15.7164 14.7247 15.7164 13.5065C15.7164 12.2882 14.7253 11.2971 13.507 11.2971ZM10.4945 11.2971C10.0517 11.2971 9.69141 10.9368 9.69141 10.494C9.69141 10.0511 10.0517 9.69085 10.4945 9.69085H11.2976V11.2971H10.4945ZM13.507 14.3096H12.7039V12.7033H13.507C13.9499 12.7033 14.3101 13.0636 14.3101 13.5064C14.3101 13.9493 13.9499 14.3096 13.507 14.3096Z" fill="#003046"/>
<path d="M12.7031 16.5189V15.7158H13.5063C14.7245 15.7158 15.7156 14.7247 15.7156 13.5065C15.7156 12.2882 14.7245 11.2971 13.5063 11.2971H12.7031V9.6908H14.2594C14.6477 9.6908 14.9625 9.37599 14.9625 8.98768C14.9625 8.59937 14.6477 8.28455 14.2594 8.28455H12.7031V7.48145C12.7031 7.09313 12.3883 6.77832 12 6.77832V17.2221C12.3883 17.2221 12.7031 16.9073 12.7031 16.5189ZM12.7031 12.7033H13.5063C13.9491 12.7033 14.3094 13.0636 14.3094 13.5064C14.3094 13.9493 13.9491 14.3095 13.5063 14.3095H12.7031V12.7033Z" fill="#003046"/>
<defs>
<linearGradient id="paint0_linear_70_770" x1="9.17585" y1="0" x2="9.17585" y2="6.18084" gradientUnits="userSpaceOnUse">
<stop stop-color="#FF641A"/>
<stop offset="1" stop-color="#FF9100"/>
</linearGradient>
<linearGradient id="paint1_linear_70_770" x1="18.9504" y1="1.60645" x2="18.9504" y2="8.9362" gradientUnits="userSpaceOnUse">
<stop stop-color="#FF641A"/>
<stop offset="1" stop-color="#FF9100"/>
</linearGradient>
<linearGradient id="paint2_linear_70_770" x1="20.9088" y1="12" x2="20.9088" y2="18.3517" gradientUnits="userSpaceOnUse">
<stop stop-color="#FF641A"/>
<stop offset="1" stop-color="#FF9100"/>
</linearGradient>
<linearGradient id="paint3_linear_70_770" x1="14.6488" y1="17.9141" x2="14.6488" y2="24.0002" gradientUnits="userSpaceOnUse">
<stop stop-color="#FF641A"/>
<stop offset="1" stop-color="#FF9100"/>
</linearGradient>
<linearGradient id="paint4_linear_70_770" x1="3.04308" y1="5.99902" x2="3.04308" y2="12.7029" gradientUnits="userSpaceOnUse">
<stop stop-color="#FF641A"/>
<stop offset="1" stop-color="#FF9100"/>
</linearGradient>
<linearGradient id="paint5_linear_70_770" x1="5.27265" y1="15.416" x2="5.27265" y2="22.4877" gradientUnits="userSpaceOnUse">
<stop stop-color="#FF641A"/>
<stop offset="1" stop-color="#FF9100"/>
</linearGradient>
</defs>
</svg>
